<?xml version="1.0" encoding="UTF-8" standalone="no"?>
<svg
   id="Ebene_1"
   data-name="Ebene 1"
   viewBox="0 0 16 16"
   version="1.1"
   width="16"
   height="16"
   xmlns="http://www.w3.org/2000/svg"
   xmlns:svg="http://www.w3.org/2000/svg">
  <defs
     id="defs1">
    <style
       id="style1">
      .cls-1 {
        fill: #e8a950;
      }

      .cls-1, .cls-2 {
        stroke-width: 0px;
      }

      .cls-2 {
        fill: #16365b;
      }
    </style>
  </defs>
  <path
     id="circle1"
     style="font-variation-settings:normal;opacity:1;vector-effect:none;fill:#828282;fill-opacity:1;stroke-width:0.0214035;stroke-linecap:butt;stroke-linejoin:miter;stroke-miterlimit:4;stroke-dasharray:none;stroke-dashoffset:0;stroke-opacity:1;-inkscape-stroke:none;stop-color:#000000;stop-opacity:1"
     class="cls-2"
     d="M 7.9999999,0.25 A 7.7500033,7.7500033 0 0 0 0.25,7.9999999 7.7500033,7.7500033 0 0 0 7.9999999,15.75 7.7500033,7.7500033 0 0 0 15.75,7.9999999 7.7500033,7.7500033 0 0 0 7.9999999,0.25 Z m 3.1649631,2.58874 v 1.2251428 c 0,0.2527755 -0.102535,0.4865208 -0.26884,0.6128014 L 8.2208911,6.7087236 V 5.4825354 c 0,-0.2521334 0.1020799,-0.4852298 0.2681711,-0.6112963 z M 4.8350787,5.0244915 7.5109376,7.0569489 C 7.677029,7.1830155 7.7791089,7.4161121 7.7791089,7.6682452 V 8.8944751 L 5.103877,6.8623941 C 4.9375716,6.7361135 4.8350787,6.50241 4.8350787,6.2496346 Z m 6.3298843,0 v 1.2251431 c 0,0.2527754 -0.102535,0.4864789 -0.26884,0.6127595 L 8.2208911,8.8944751 V 7.6682452 c 0,-0.2521331 0.1020799,-0.4852297 0.2681711,-0.6112963 z M 4.8350787,7.1579885 7.5109376,9.1904876 C 7.677029,9.3165542 7.7791089,9.5496089 7.7791089,9.8017422 V 11.027972 L 5.103877,8.9958911 C 4.9375716,8.8696105 4.8350787,8.6359068 4.8350787,8.3831314 Z m 6.3298843,0.080263 v 1.2251428 c 0,0.2527755 -0.102535,0.4864791 -0.26884,0.6127597 L 8.2208911,11.108235 V 9.8820054 c 0,-0.2521333 0.1020799,-0.485188 0.2681711,-0.6112545 z m -6.3298843,2.053234 2.6758589,2.0324985 c 0.1660914,0.126067 0.2681713,0.359122 0.2681713,0.611255 v 1.22623 L 5.103877,11.12943 C 4.9375716,11.003149 4.8350787,10.769404 4.8350787,10.516628 Z" />
</svg>
