<?xml version="1.0" encoding="UTF-8"?>
<svg id="Ebene_1" data-name="Ebene 1" xmlns="http://www.w3.org/2000/svg" viewBox="0 0 803.35 771.54">
  <defs>
    <style>
      .cls-1 {
        fill: #e8a950;
      }

      .cls-1, .cls-2 {
        stroke-width: 0px;
      }

      .cls-2 {
        fill: #16365b;
      }
    </style>
  </defs>
  <circle class="cls-2" cx="396.13" cy="390.8" r="362.09"/>
  <g>
    <path class="cls-1" d="M248.26,408.7v-57.24l125.02,94.96c7.76,5.89,12.53,16.78,12.53,28.56v57.29l-124.99-94.94c-7.77-5.9-12.56-16.82-12.56-28.63Z"/>
    <path class="cls-1" d="M248.26,309.02v-57.24l125.02,94.96c7.76,5.89,12.53,16.78,12.53,28.56v57.29l-124.99-94.94c-7.77-5.9-12.56-16.82-12.56-28.63Z"/>
    <path class="cls-1" d="M248.26,508.38v-57.24l125.02,94.96c7.76,5.89,12.53,16.78,12.53,28.56v57.29l-124.99-94.94c-7.77-5.9-12.56-16.82-12.56-28.63Z"/>
    <path class="cls-1" d="M544,309.02v-57.24s-125.02,94.96-125.02,94.96c-7.76,5.89-12.53,16.78-12.53,28.56v57.29s124.99-94.94,124.99-94.94c7.77-5.9,12.56-16.82,12.56-28.63Z"/>
    <path class="cls-1" d="M544,206.9v-57.24s-125.02,94.96-125.02,94.96c-7.76,5.89-12.53,16.78-12.53,28.56v57.29s124.99-94.94,124.99-94.94c7.77-5.9,12.56-16.82,12.56-28.63Z"/>
    <path class="cls-1" d="M544,412.45v-57.24s-125.02,94.96-125.02,94.96c-7.76,5.89-12.53,16.78-12.53,28.56v57.29s124.99-94.94,124.99-94.94c7.77-5.9,12.56-16.82,12.56-28.63Z"/>
  </g>
</svg>